<mxfile host="app.diagrams.net" agent="Mozilla/5.0 (Windows NT 10.0; Win64; x64) AppleWebKit/537.36 (KHTML, like Gecko) Chrome/141.0.0.0 Safari/537.36 Edg/141.0.0.0" version="27.2.0">
  <diagram name="Page-1" id="8IJkLw23ox_7D1ag1xGc">
    <mxGraphModel dx="1034" dy="587" grid="1" gridSize="10" guides="1" tooltips="1" connect="1" arrows="1" fold="1" page="1" pageScale="1" pageWidth="827" pageHeight="1169" math="0" shadow="0">
      <root>
        <mxCell id="0" />
        <mxCell id="1" parent="0" />
        <mxCell id="BCWLcv5clcXd3nh8EEaw-5" value="" style="rounded=0;whiteSpace=wrap;html=1;" vertex="1" parent="1">
          <mxGeometry x="40" y="40" width="200" height="160" as="geometry" />
        </mxCell>
        <mxCell id="BCWLcv5clcXd3nh8EEaw-4" value="" style="edgeStyle=orthogonalEdgeStyle;rounded=0;orthogonalLoop=1;jettySize=auto;html=1;" edge="1" parent="1" source="BCWLcv5clcXd3nh8EEaw-2" target="BCWLcv5clcXd3nh8EEaw-3">
          <mxGeometry relative="1" as="geometry" />
        </mxCell>
        <mxCell id="BCWLcv5clcXd3nh8EEaw-2" value="L&#39;utilisateur enregistre un compte" style="text;html=1;align=center;verticalAlign=middle;whiteSpace=wrap;rounded=0;fillColor=default;strokeColor=default;" vertex="1" parent="1">
          <mxGeometry x="70" y="60" width="140" height="30" as="geometry" />
        </mxCell>
        <mxCell id="BCWLcv5clcXd3nh8EEaw-3" value="L&#39;utilisateur se connecte" style="text;html=1;align=center;verticalAlign=middle;whiteSpace=wrap;rounded=0;fillColor=default;strokeColor=default;" vertex="1" parent="1">
          <mxGeometry x="70" y="140" width="140" height="30" as="geometry" />
        </mxCell>
        <mxCell id="BCWLcv5clcXd3nh8EEaw-8" value="" style="rounded=0;whiteSpace=wrap;html=1;" vertex="1" parent="1">
          <mxGeometry x="280" y="40" width="280" height="310" as="geometry" />
        </mxCell>
        <mxCell id="BCWLcv5clcXd3nh8EEaw-9" value="L&#39;utilisateur scan un livre" style="text;html=1;align=center;verticalAlign=middle;whiteSpace=wrap;rounded=0;fillColor=default;strokeColor=default;" vertex="1" parent="1">
          <mxGeometry x="344" y="60" width="140" height="30" as="geometry" />
        </mxCell>
      </root>
    </mxGraphModel>
  </diagram>
</mxfile>
